<svg width="36" height="36" viewBox="0 0 36 36" fill="none" xmlns="http://www.w3.org/2000/svg">
<path d="M17.0977 0.00572669C14.2087 0.0406017 7.99754 0.515352 4.52354 3.70248C1.93941 6.26298 1.03716 10.0486 0.931413 14.7297C0.843663 19.394 0.737912 28.1532 9.18104 30.5382V34.1709C9.18104 34.1709 9.12816 35.6244 10.0889 35.9225C11.2724 36.2971 11.9463 35.1789 13.0713 33.9774L15.1694 31.6047C20.9463 32.0851 25.3709 30.9781 25.8805 30.8139C27.0528 30.4392 33.6554 29.5955 34.7343 20.8351C35.8413 11.7879 34.1954 6.08748 31.2243 3.50898H31.2063C30.3097 2.68323 26.7063 0.0574767 18.6558 0.0282267C18.6558 0.0282267 18.0584 -0.0122733 17.0977 0.00460169V0.00572669ZM17.1967 2.54935C18.0168 2.54373 18.5152 2.5786 18.5152 2.5786C25.3293 2.5966 28.5817 4.64748 29.3489 5.33823C31.8509 7.48248 33.1402 12.6215 32.1963 20.1747C31.2997 27.4985 25.9447 27.962 24.9535 28.2781C24.5317 28.4131 20.6347 29.3739 15.7252 29.0577C15.7252 29.0577 12.0689 33.47 10.9259 34.6062C10.7448 34.8054 10.5333 34.8639 10.3983 34.8346C10.2048 34.7874 10.1463 34.5477 10.1575 34.2192L10.1924 28.1904C3.03179 26.2104 3.45366 18.7392 3.53016 14.8366C3.61791 10.934 4.35029 7.74123 6.53054 5.57898C9.46566 2.9251 14.7397 2.56735 17.1944 2.54935H17.1967ZM17.7367 6.45085C17.6777 6.45026 17.6193 6.46133 17.5646 6.48344C17.51 6.50555 17.4603 6.53825 17.4183 6.57967C17.3764 6.62108 17.3431 6.67038 17.3203 6.72474C17.2975 6.77909 17.2857 6.83741 17.2855 6.89635C17.2855 7.14835 17.4903 7.34748 17.7367 7.34748C18.8521 7.32626 19.9607 7.52609 20.9985 7.93543C22.0364 8.34477 22.9829 8.95553 23.7835 9.73248C25.4182 11.3199 26.2147 13.4529 26.245 16.2417C26.245 16.4881 26.4442 16.6929 26.6962 16.6929V16.6749C26.8149 16.6752 26.929 16.6285 27.0135 16.545C27.098 16.4616 27.1461 16.3481 27.1473 16.2294C27.2019 14.9166 26.989 13.6065 26.5216 12.3787C26.0542 11.1508 25.3419 10.0308 24.4282 9.08673C22.6473 7.34635 20.3905 6.44973 17.7367 6.44973V6.45085ZM11.8068 7.48248C11.4884 7.43595 11.1636 7.49987 10.8865 7.6636H10.8629C10.2197 8.04063 9.64028 8.51716 9.14616 9.07548C8.73554 9.55023 8.51279 10.0306 8.45429 10.493C8.41941 10.7686 8.44304 11.0442 8.52516 11.3075L8.55441 11.3255C9.01679 12.6845 9.62091 13.9917 10.3589 15.2225C11.3096 16.9516 12.4795 18.5506 13.8397 19.9801L13.8802 20.0386L13.9443 20.0859L13.9848 20.1331L14.032 20.1736C15.4667 21.5378 17.0696 22.7132 18.802 23.6712C20.782 24.749 21.9835 25.2586 22.7047 25.4701V25.4814C22.9162 25.5455 23.1085 25.5747 23.302 25.5747C23.9166 25.5297 24.4984 25.2802 24.9547 24.866C25.5104 24.3717 25.9817 23.7899 26.3497 23.1436V23.1324C26.695 22.4821 26.578 21.8667 26.0797 21.4505C25.0816 20.578 24.0023 19.8031 22.8565 19.1364C22.0893 18.7201 21.3097 18.9721 20.9935 19.394L20.3197 20.2434C19.9743 20.6652 19.3465 20.6067 19.3465 20.6067L19.3285 20.618C14.6474 19.4221 13.3987 14.6825 13.3987 14.6825C13.3987 14.6825 13.3402 14.0379 13.7733 13.7094L14.617 13.0299C15.0209 12.7014 15.3022 11.9229 14.869 11.1545C14.2069 10.0071 13.4337 8.9276 12.5605 7.93135C12.3697 7.69649 12.1019 7.53669 11.8045 7.48023L11.8068 7.48248ZM18.5152 8.81898C17.9178 8.81898 17.9178 9.72123 18.5208 9.72123C19.2636 9.73328 19.9968 9.89159 20.6784 10.1871C21.36 10.4827 21.9766 10.9096 22.4932 11.4436C22.9643 11.9634 23.3264 12.5724 23.5579 13.2346C23.7894 13.8969 23.8857 14.5989 23.8409 15.299C23.843 15.4175 23.8913 15.5304 23.9757 15.6137C24.06 15.697 24.1735 15.7439 24.292 15.7445L24.31 15.7681C24.4294 15.7672 24.5436 15.7194 24.6281 15.635C24.7125 15.5506 24.7603 15.4363 24.7612 15.317C24.8017 13.5294 24.2459 12.0297 23.1558 10.8282C22.06 9.62673 20.5312 8.95285 18.5793 8.81898H18.5152ZM19.2543 11.2445C18.6389 11.2265 18.6153 12.1467 19.225 12.1647C20.7078 12.2412 21.4278 12.9905 21.5223 14.5317C21.5243 14.6487 21.5721 14.7603 21.6554 14.8425C21.7386 14.9247 21.8508 14.971 21.9678 14.9716H21.9858C22.0459 14.969 22.105 14.9545 22.1595 14.9288C22.2139 14.9032 22.2628 14.867 22.3031 14.8222C22.3434 14.7775 22.3744 14.7252 22.3943 14.6684C22.4142 14.6116 22.4226 14.5513 22.4189 14.4912C22.3132 12.482 21.2174 11.3502 19.2723 11.2456H19.2543V11.2445Z" fill="#7360F2"/>
</svg>
