<svg width="36" height="36" viewBox="0 0 36 36" fill="none" xmlns="http://www.w3.org/2000/svg">
<path d="M9.5155 30.8325L10.1039 31.1234C12.5559 32.5777 15.3019 33.2564 18.0481 33.2564C26.6786 33.2564 33.74 26.2755 33.74 17.7432C33.74 13.671 32.0727 9.69574 29.1305 6.78697C26.1882 3.8782 22.2652 2.22998 18.0481 2.22998C9.4175 2.22998 2.356 9.21092 2.45414 17.8402C2.45414 20.7489 3.33681 23.5607 4.80788 25.9846L5.20014 26.5664L3.63108 32.2869L9.5155 30.8325Z" fill="#00E676"/>
<path d="M30.7994 5.23571C27.4648 1.84225 22.8553 0 18.1477 0C8.14421 0 0.102043 8.04746 0.20004 17.8402C0.20004 20.9428 1.08271 23.9486 2.55392 26.6634L0.00390625 35.8743L9.51715 33.4504C12.1652 34.9049 15.1073 35.5836 18.0497 35.5836C27.9552 35.5836 35.9974 27.536 35.9974 17.7434C35.9974 12.9924 34.1339 8.53228 30.7995 5.23571H30.7994ZM18.1477 32.5779C15.4997 32.5779 12.8517 31.8993 10.596 30.5419L10.0076 30.251L4.31926 31.7053L5.79033 26.1788L5.39807 25.597C1.08271 18.7131 3.14232 9.5988 10.2037 5.33259C17.265 1.06652 26.386 3.10267 30.7014 10.0836C35.0166 17.0646 32.957 26.0817 25.8958 30.3479C23.6399 31.8022 20.8939 32.5778 18.1477 32.5778V32.5779ZM26.7783 21.8157L25.6995 21.3309C25.6995 21.3309 24.1304 20.6522 23.1496 20.1674C23.0515 20.1674 22.9535 20.0703 22.8553 20.0703C22.5611 20.0703 22.3649 20.1674 22.1688 20.2644C22.1688 20.2644 22.0708 20.3613 20.6977 21.9126C20.5996 22.1065 20.4035 22.2035 20.2073 22.2035H20.1092C20.0112 22.2035 19.8151 22.1065 19.7169 22.0096L19.2265 21.8157C18.1477 21.3309 17.1671 20.7491 16.3824 19.9735C16.1862 19.7796 15.892 19.5857 15.6958 19.3918C15.0093 18.7131 14.3228 17.9373 13.8325 17.0647L13.7344 16.8708C13.6364 16.7738 13.6364 16.6769 13.5382 16.483C13.5382 16.2891 13.5382 16.0952 13.6364 15.9982C13.6364 15.9982 14.0286 15.5134 14.3228 15.2226C14.519 15.0285 14.617 14.7378 14.8132 14.5439C15.0093 14.2529 15.1074 13.8651 15.0093 13.5742C14.9113 13.0894 13.7344 10.4716 13.4402 9.88985C13.244 9.59893 13.048 9.50205 12.7537 9.40504H11.6749C11.4786 9.40504 11.2826 9.50205 11.0864 9.50205L10.9882 9.59893C10.7921 9.69595 10.596 9.88985 10.3998 9.98673C10.2037 10.1808 10.1055 10.3745 9.90941 10.5686C9.22288 11.4412 8.83061 12.5077 8.83061 13.5742C8.83061 14.3498 9.02674 15.1256 9.32101 15.8043L9.41915 16.0952C10.3018 17.9373 11.4786 19.5857 13.048 21.04L13.4402 21.4278C13.7344 21.7187 14.0286 21.9126 14.2248 22.2034C16.2844 23.9488 18.6381 25.2092 21.2861 25.8879C21.5804 25.9848 21.9727 25.9848 22.2669 26.0818H23.2476C23.738 26.0818 24.3264 25.8879 24.7188 25.694C25.0129 25.5001 25.2091 25.5001 25.4052 25.3062L25.6015 25.1122C25.7976 24.9183 25.9938 24.8214 26.1899 24.6275C26.386 24.4336 26.5822 24.2397 26.6803 24.0456C26.8764 23.6578 26.9744 23.173 27.0726 22.6883V22.0096C27.0726 22.0096 26.9744 21.9126 26.7783 21.8157Z" fill="white"/>
</svg>
